<svg width="17" height="16" viewBox="0 0 17 16" fill="none" xmlns="http://www.w3.org/2000/svg">
<path fill-rule="evenodd" clip-rule="evenodd" d="M8.4741 0C6.46745 0 4.81051 1.48669 4.55795 3.41219L4.10285 3.41219C3.41895 3.41216 2.85181 3.41215 2.40672 3.47394C1.9388 3.5389 1.51835 3.68233 1.19859 4.03728C0.878835 4.39222 0.781788 4.82325 0.768481 5.29249C0.755823 5.73883 0.81847 6.29887 0.894015 6.9742L1.10549 8.86523C1.26349 10.2781 1.38758 11.3878 1.59835 12.2503C1.81438 13.1343 2.13569 13.8243 2.7322 14.3547C3.32928 14.8857 4.05837 15.1265 4.97148 15.242C5.86298 15.3549 6.99504 15.3548 8.43734 15.3548H8.51085C9.95315 15.3548 11.0852 15.3549 11.9767 15.242C12.8898 15.1265 13.6189 14.8857 14.216 14.3547C14.8125 13.8243 15.1338 13.1343 15.3499 12.2503C15.5606 11.3878 15.6847 10.2782 15.8427 8.8653L16.0542 6.97419C16.1297 6.29887 16.1924 5.73882 16.1797 5.29249C16.1664 4.82325 16.0694 4.39223 15.7496 4.03728C15.4299 3.68233 15.0094 3.5389 14.5415 3.47394C14.0964 3.41215 13.5292 3.41216 12.8453 3.41219L12.3903 3.41219C12.1379 1.48685 10.4807 0 8.4741 0ZM8.4741 1.02366C9.91054 1.02366 11.1047 2.05447 11.348 3.41219H5.60019C5.8434 2.05462 7.03768 1.02366 8.4741 1.02366ZM1.96629 4.71997C2.05607 4.62031 2.19853 4.53644 2.54929 4.48774C2.91466 4.43702 3.40919 4.43584 4.14087 4.43584H12.8073C13.539 4.43584 14.0335 4.43702 14.3989 4.48774C14.7497 4.53644 14.8921 4.62031 14.9819 4.71997C15.0717 4.81964 15.1399 4.96957 15.1498 5.32132C15.1602 5.68771 15.1068 6.17618 15.026 6.89869L14.8228 8.71574C14.6598 10.1731 14.542 11.2174 14.3486 12.0088C14.1587 12.7859 13.9103 13.2528 13.5289 13.592C13.148 13.9307 12.6514 14.1247 11.8465 14.2266C11.0277 14.3302 9.96118 14.3312 8.4741 14.3312C6.98702 14.3312 5.92054 14.3302 5.10166 14.2266C4.29682 14.1247 3.8002 13.9307 3.41932 13.592C3.03788 13.2528 2.78948 12.7859 2.59956 12.0088C2.40618 11.2174 2.28839 10.1731 2.12541 8.71574L1.92221 6.89869C1.84141 6.17619 1.78798 5.68771 1.79837 5.32132C1.80834 4.96957 1.87651 4.81964 1.96629 4.71997Z" fill="black" fill-opacity="0.3"/>
<path d="M12.5953 6.65376C12.5953 7.03066 12.2878 7.3362 11.9084 7.3362C11.5291 7.3362 11.2215 7.03066 11.2215 6.65376C11.2215 6.27686 11.5291 5.97133 11.9084 5.97133C12.2878 5.97133 12.5953 6.27686 12.5953 6.65376Z" fill="black" fill-opacity="0.3"/>
<path d="M5.72663 6.65376C5.72663 7.03066 5.41911 7.3362 5.03976 7.3362C4.66042 7.3362 4.3529 7.03066 4.3529 6.65376C4.3529 6.27686 4.66042 5.97133 5.03976 5.97133C5.41911 5.97133 5.72663 6.27686 5.72663 6.65376Z" fill="black" fill-opacity="0.3"/>
</svg>
