<svg width="46" height="56" viewBox="0 0 46 56" fill="#3abfef" xmlns="http://www.w3.org/2000/svg">
<g clip-path="url(#clip0_28_36)">
<path d="M43.7497 32.5267C43.7497 35.0407 41.8184 37.008 39.2386 37.1366C38.6312 37.167 38.0024 37.158 37.4219 37.3117C35.6967 37.7673 34.5913 38.893 34.1165 40.6155C33.9911 41.0729 33.9176 41.5464 33.7833 42.0021C32.8839 45.0414 29.3187 46.2832 26.7192 44.466C26.3447 44.2034 25.9936 43.9086 25.6192 43.6459C24.0014 42.5167 21.9178 42.5274 20.3161 43.6727C19.9596 43.9282 19.6228 44.2105 19.2627 44.4607C16.5915 46.3315 12.9027 44.9485 12.1234 41.7876C12.0374 41.4374 11.9675 41.0819 11.8833 40.7299C11.3781 38.6143 9.67788 37.2385 7.4886 37.1438C6.88126 37.117 6.25601 37.108 5.67375 36.9615C2.85026 36.2486 1.43852 33.1788 2.66573 30.5415C3.033 29.7536 3.44327 28.9584 3.6278 28.1204C3.95565 26.6445 3.45581 25.342 2.42925 24.2467C2.11752 23.9143 1.75741 23.6266 1.42777 23.3086C-0.944254 21.0161 -0.270629 17.1406 2.7356 15.7844C3.1172 15.6128 3.51314 15.4717 3.89474 15.2966C5.79021 14.4318 6.80064 12.5056 6.5552 10.4401C6.4495 9.54846 6.37425 8.59074 6.58207 7.73486C7.19479 5.21905 9.77463 3.8593 12.2989 4.53828C13.209 4.78307 14.1568 5.02429 15.0866 5.02429C16.5288 5.0225 17.6503 4.25775 18.478 3.0874C18.7199 2.74612 18.9295 2.38162 19.166 2.03498C21.0274 -0.689887 24.9599 -0.684527 26.8177 2.0457C27.0542 2.39234 27.2656 2.75506 27.5039 3.09812C28.6146 4.70267 30.537 5.41202 32.4342 4.91708C33.0237 4.76342 33.6005 4.54543 34.1971 4.43643C37.2804 3.87538 39.9874 6.51805 39.5592 9.60742C39.4518 10.39 39.3837 11.2084 39.493 11.9839C39.7008 13.4526 40.5769 14.5122 41.8919 15.1965C42.2448 15.3806 42.6246 15.5164 42.9937 15.67C46.3492 17.0673 47.0336 21.0465 44.3409 23.4944C44.1438 23.6749 43.9432 23.8518 43.7497 24.034C42.1803 25.5242 41.8202 27.5719 42.7823 29.5159C43.6476 31.2634 43.7479 31.5743 43.7479 32.5177L43.7497 32.5267ZM22.9569 37.0955C31.0135 37.0848 37.4613 30.6327 37.4452 22.5956C37.4273 14.6176 30.9437 8.22444 22.8781 8.23338C14.9683 8.24052 8.52054 14.7463 8.53487 22.7029C8.5492 30.6416 15.0257 37.1062 22.9587 37.0955H22.9569Z" fill="#3abfef" fill-opacity=""/>
<path d="M18.6214 46.7462C17.3046 49.8409 16.0219 52.8588 14.6854 55.9982C13.4402 53.4109 12.2417 50.9219 11.0163 48.3793C8.36117 49.2566 5.73296 50.125 2.9668 51.0399C4.70998 46.9427 6.39404 42.9814 8.10319 38.9629C9.13692 39.2416 9.80875 39.867 10.1384 40.8515C10.2584 41.2107 10.3176 41.5895 10.4 41.9611C11.1936 45.5204 14.5277 47.6378 18.1019 46.8552C18.2452 46.823 18.3885 46.7944 18.6214 46.7444V46.7462Z" fill="#3abfef" fill-opacity=""/>
<path d="M31.2949 56C29.953 52.8427 28.6738 49.8373 27.3929 46.8248C28.1507 46.8945 28.8835 47.0464 29.6055 47.0106C32.6672 46.8659 34.9425 44.8968 35.591 41.9022C35.6627 41.568 35.7308 41.2321 35.8257 40.9034C36.1106 39.9242 36.8165 39.2613 37.8842 38.9843C39.5719 42.951 41.2631 46.9249 43.0117 51.0309C40.2491 50.1179 37.6227 49.2495 34.9658 48.3704C33.7422 50.9112 32.5418 53.4074 31.2967 55.9964L31.2949 56Z" fill="#3abfef" fill-opacity=""/>
<path d="M22.9785 35.3714C15.5955 35.1981 10.0847 29.5125 10.2585 22.251C10.4251 15.27 16.3229 9.77557 23.4604 9.95246C30.3866 10.1258 35.8849 16.0097 35.7218 23.0747C35.5642 29.8699 29.7004 35.5305 22.9785 35.3714ZM21.2926 24.0628C20.3969 23.0675 19.5351 22.1045 18.668 21.1485C17.7902 20.1801 16.5522 20.0604 15.6833 20.8519C14.8341 21.6274 14.8233 22.8478 15.6797 23.8055C17.0252 25.3118 18.376 26.8127 19.7322 28.31C20.7014 29.3803 22.0111 29.3642 22.9516 28.2725C25.4132 25.4154 27.873 22.5529 30.3275 19.6905C31.1623 18.7185 31.1265 17.491 30.2612 16.7369C29.3564 15.9507 28.1525 16.0955 27.289 17.0996C25.6605 18.9919 24.0355 20.8859 22.4088 22.7781C22.0523 23.1944 21.6904 23.6054 21.2926 24.0646V24.0628Z" fill="#3abfef" fill-opacity=""/>
</g>
<defs>
<clipPath id="clip0_28_36">
<rect width="46" height="56" fill="#3abfef"/>
</clipPath>
</defs>
</svg>
