<svg width="45" height="55" viewBox="0 0 45 55" fill="#3abfef" xmlns="http://www.w3.org/2000/svg">
<g clip-path="url(#clip0_28_73)">
<path d="M32.3884 34.8325C32.3884 34.5812 32.3721 34.3281 32.395 34.0778C32.4065 33.9522 32.4868 33.8323 32.5364 33.7104C32.6473 33.8039 32.8145 33.8767 32.8584 33.9938C33.0629 34.5359 33.2148 35.0969 33.4203 35.6381C33.5741 36.0443 33.77 36.4353 33.9697 36.8216C34.0012 36.8829 34.1636 36.9207 34.2515 36.9028C35.057 36.7403 35.6589 36.2738 36.1128 35.6164C36.1844 35.5135 36.2102 35.3406 36.1825 35.2169C36.0507 34.6379 35.8424 34.0712 35.7602 33.4866C35.7019 33.0767 35.7975 32.6451 35.8443 32.2257C35.8462 32.2059 36.0631 32.1615 36.1329 32.203C36.4663 32.4042 36.9469 32.3164 37.0778 31.949C37.2173 31.558 37.2918 31.1367 37.3406 30.723C37.3845 30.3509 37.3301 29.9675 37.3712 29.5944C37.3864 29.4537 37.5479 29.329 37.6425 29.1968C37.7447 29.3375 37.91 29.4669 37.9368 29.6199C38.0123 30.0647 38.169 30.1564 38.5502 29.8777C38.7919 29.7021 39.006 29.4848 39.2114 29.2667C39.3729 29.0957 39.4971 29.005 39.6079 29.2959C39.7006 29.5387 39.7885 29.6199 39.9385 29.3224C39.9681 29.2638 40.1822 29.2194 40.2252 29.2591C40.3427 29.3687 40.4592 29.516 40.4956 29.6671C40.6714 30.4123 40.7889 31.1726 40.9895 31.9112C41.1137 32.3702 41.3297 32.8085 41.5418 33.2382C41.688 33.5338 41.6154 33.7463 41.4023 33.9532C41.1223 34.2242 41.0478 34.5718 41.3201 34.8344C41.7854 35.2821 41.73 35.7845 41.6087 36.3134C41.5103 36.7451 41.5246 37.0511 42.0625 37.2107C42.288 37.2777 42.524 37.5998 42.59 37.8492C42.8565 38.8579 43.1518 39.8486 43.2502 40.9121C43.361 42.1125 43.7776 43.2875 44.0776 44.469C44.1665 44.8185 44.155 45.1151 43.8703 45.3729C43.8101 45.4277 43.7556 45.5287 43.7595 45.6052C43.7738 45.9009 43.7394 46.2286 43.8569 46.4846C44.1846 47.2005 44.1541 47.9268 44.1598 48.689C44.1684 49.9376 44.3241 51.1871 44.4761 52.4301C44.5382 52.9344 44.7589 53.4189 44.8965 53.9157C44.949 54.1075 45.1459 54.3389 44.8124 54.473C44.5372 54.5835 44.1674 54.591 44.1206 54.2935C43.9993 53.5143 43.577 53.4397 42.9129 53.5682C42.783 53.5937 42.5403 53.2593 42.4189 53.0506C42.331 52.8995 42.395 52.6643 42.3148 52.5047C42.2746 52.4244 41.9546 52.381 41.9469 52.398C41.753 52.8504 41.3947 52.7257 41.0507 52.6728C40.9656 52.6596 40.8749 52.687 40.786 52.6964C40.8376 53.0685 40.6255 53.3235 40.4363 53.6144C40.358 53.7353 40.4707 54.0461 40.5863 54.2076C40.83 54.5466 40.636 54.7308 40.401 54.915C40.1401 55.119 39.9414 54.9197 39.864 54.7355C39.6347 54.1896 39.4512 53.6248 39.2754 53.0591C39.2477 52.9703 39.3394 52.7606 39.4025 52.7484C39.5143 52.7276 39.6633 52.7927 39.7684 52.8636C39.9213 52.9665 40.0493 53.1044 40.1879 53.2282C40.2232 53.0005 40.2901 52.771 40.2834 52.5443C40.2787 52.3838 40.2146 52.1921 40.1095 52.0721C39.6729 51.5763 39.4655 51.0067 39.4455 50.3569C39.4426 50.253 39.391 50.1454 39.3413 50.0509C39.284 49.9423 39.2038 49.845 39.133 49.743C39.328 49.6542 39.5143 49.5277 39.7188 49.4889C39.9213 49.4502 40.1401 49.5012 40.3522 49.5126C40.3054 49.2698 40.271 49.0243 40.206 48.7863C40.1497 48.5794 40.057 48.382 39.9806 48.1808C39.9643 48.4 39.9519 48.62 39.9299 48.8382C39.9194 48.9383 39.8888 49.0375 39.8678 49.1367C39.7818 49.0772 39.6863 49.0271 39.6127 48.9553C39.4302 48.7806 39.2611 48.5917 39.0795 48.416C38.7088 48.0562 38.7776 47.7747 39.2745 47.6321C39.907 47.4498 40.0627 47.1665 39.8497 46.5478C39.7388 46.2258 39.5888 45.9254 39.7656 45.5646C39.8305 45.4315 39.734 45.2274 39.7283 45.0556C39.7111 44.5606 39.6767 44.0638 39.7016 43.5708C39.7149 43.3026 39.6958 43.2015 39.4101 43.3168C38.8521 43.5425 38.2779 43.7333 37.7371 43.9921C37.182 44.2575 36.8944 44.7278 36.8647 45.3512C36.8581 45.4862 36.751 45.6156 36.6909 45.7479C36.5714 45.6553 36.4348 45.5769 36.3373 45.4645C36.2704 45.3861 36.2322 45.2643 36.2255 45.1585C36.1214 43.6426 35.4048 42.3931 34.4101 41.306C33.7642 40.5995 33.3763 39.8637 33.5177 38.8994C33.5311 38.805 33.4843 38.703 33.4661 38.6038C33.4126 38.6935 33.339 38.7766 33.3094 38.873C33.2062 39.2007 33.0018 39.3547 32.6616 39.4765C32.4065 39.5681 32.1944 39.8779 32.0482 40.1367C31.8561 40.4795 31.6545 40.6996 31.2274 40.5853C31.1453 40.5636 31.0526 40.5834 30.9637 40.5834C30.9886 40.6864 31.0048 40.7922 31.0411 40.8913C31.1682 41.237 31.3259 41.5742 31.4271 41.9274C31.5084 42.2098 31.3192 42.3562 31.0593 42.4356C30.5959 42.5763 30.0522 42.377 29.7302 41.9397C29.6863 41.8802 29.6289 41.8311 29.5783 41.7773C29.5496 41.8424 29.5028 41.9057 29.4961 41.9728C29.4627 42.3496 29.285 42.3619 28.9792 42.2193C28.4336 41.9643 28.1336 42.0587 27.9186 42.6046C27.76 43.007 27.6435 43.4443 27.61 43.8731C27.5345 44.843 27.5259 45.8187 27.4839 46.7915C27.4562 47.4394 27.1199 47.8446 26.5628 47.9315C26.2724 47.9768 26.0497 47.9249 26.0182 47.5858C25.9905 47.2817 25.8653 47.1929 25.6809 47.4725C25.5252 47.7086 25.4506 47.6359 25.3446 47.4602C25.3121 47.4064 25.2758 47.3544 25.2376 47.3044C24.8391 46.7783 24.7388 46.784 24.3452 47.2902C24.176 47.5074 24.0662 47.855 23.6505 47.7039C23.618 47.6925 23.4986 47.8465 23.4566 47.94C23.3018 48.2838 23.1346 48.6257 23.0247 48.9837C22.8097 49.6882 22.354 50.101 21.624 50.2266C21.4214 50.2615 21.2217 50.322 21.0172 50.3409C20.872 50.3541 20.722 50.3163 20.5739 50.3012C20.6159 50.1746 20.6523 50.0462 20.701 49.9225C20.7612 49.7695 21.0526 49.5343 20.55 49.6231C20.4459 49.641 20.2471 49.42 20.1774 49.2698C20.1029 49.1083 20.1392 48.8996 20.1057 48.7154C20.0895 48.6266 20.0236 48.5464 19.9806 48.4623C19.9376 48.5322 19.886 48.5992 19.8525 48.6739C19.8239 48.739 19.8153 48.8127 19.7971 48.8816C19.7226 48.8335 19.6318 48.8004 19.5773 48.7362C19.3633 48.4831 19.1665 48.2167 18.9496 47.9664C18.8951 47.9041 18.791 47.8843 18.7098 47.8456C18.6802 47.9268 18.6286 48.0061 18.6247 48.0883C18.6152 48.2762 18.5856 48.4793 18.641 48.6512C18.8177 49.1924 18.5301 49.5154 18.146 49.811C17.6759 50.1728 17.4571 50.1425 17.1953 49.6202C17.0214 49.2727 16.7596 49.3699 16.5141 49.454C16.4864 49.4634 16.5647 49.7789 16.5963 49.9517C16.5991 49.965 16.6182 49.9744 16.6249 49.9886C16.7147 50.168 16.8026 50.3475 16.8915 50.5269C16.6297 50.5411 16.279 50.6686 16.1233 50.5487C15.4774 50.0528 14.9605 50.3324 14.4464 50.7215C14.0738 51.0048 13.8369 50.9973 13.5368 50.577C13.019 49.8497 12.7218 49.1121 12.9702 48.2167C13.0075 48.0817 12.9397 47.9079 12.8881 47.7624C12.824 47.5811 12.7524 47.361 12.5441 47.6888C12.4543 47.8295 12.2918 47.9249 12.1629 48.0411C11.838 48.332 11.7845 48.6937 11.8122 49.1112C11.8495 49.6646 11.837 50.2219 11.8179 50.7772C11.8141 50.9009 11.6956 51.02 11.6307 51.1418C11.5227 51.0625 11.3717 51.0058 11.3144 50.8991C11.173 50.6384 11.0908 50.3475 10.9561 50.083C10.3102 48.8155 10.3952 47.4253 10.3924 46.086C10.3914 45.5646 10.5214 45.0763 10.2194 44.6041C10.1181 44.4454 10.0417 44.2301 9.89265 44.1488C9.34039 43.8438 9.46746 43.4216 9.692 43.0296C9.94807 42.581 9.77417 42.2599 9.49804 41.9274C9.41109 41.8226 9.28306 41.7121 9.26968 41.594C9.22191 41.17 9.21713 40.7412 9.18942 40.3152C9.18273 40.2075 9.17031 40.0923 9.1254 39.9969C8.8636 39.4472 8.86551 39.3424 9.40058 39.0713C9.81526 38.8607 9.81812 38.6992 9.49517 38.4026C9.21235 38.1429 8.96679 37.8397 8.73079 37.5365C8.65149 37.4345 8.59512 37.256 8.6276 37.138C8.7585 36.6516 8.74704 36.1132 9.17987 35.7297C9.36427 35.5663 9.50186 35.3387 9.62225 35.1196C9.71206 34.9572 9.73977 34.7607 9.79519 34.5794C9.54772 34.5775 9.17413 34.4726 9.07285 34.5926C8.4795 35.2943 8.08776 34.7456 7.65302 34.4273C7.53932 34.3442 7.42944 34.2469 7.34249 34.1364C7.29376 34.0741 7.27178 33.9003 7.27943 33.8974C7.81258 33.7199 7.59664 33.2099 7.7457 32.867C7.84507 32.6375 8.01323 32.3268 7.9301 32.1587C7.83265 31.9603 7.49154 31.8848 7.26509 31.7412C6.86379 31.4881 6.43765 31.2595 6.08508 30.9507C5.90068 30.7892 5.82424 30.486 5.74589 30.2329C5.48887 29.4112 5.92552 28.9946 6.6555 28.7462C6.84755 28.6811 7.02049 28.5573 7.1963 28.4506C7.47721 28.2797 7.56129 28.0927 7.39886 27.7479C7.21541 27.3616 7.14948 26.9206 7.04056 26.5012C7.031 26.4653 7.07209 26.3888 7.10744 26.3737C7.50778 26.199 7.3788 25.8448 7.29758 25.6011C7.24121 25.433 6.96508 25.3234 6.77016 25.2177C6.6641 25.16 6.52174 25.1393 6.39943 25.1478C5.47358 25.2158 4.74933 24.8663 4.12732 24.1929C3.98017 24.0333 3.63142 24.0087 3.37345 24.004C2.54696 23.987 1.93641 23.7518 1.71761 22.848C1.58002 22.2803 1.05069 21.9989 0.578682 21.6985C0.387587 21.5767 0.204136 21.4095 0.0818348 21.2225C-0.0653083 20.9968 -0.022312 20.7965 0.271019 20.653C0.455425 20.5623 0.593014 20.3687 0.737291 20.2091C0.830927 20.1052 0.872968 19.9286 0.983803 19.8709C1.59626 19.5536 1.70614 19.0067 1.74532 18.4023C1.75869 18.1879 1.84182 17.9744 1.91921 17.7695C1.94597 17.6986 2.0568 17.608 2.11986 17.6155C2.18292 17.6231 2.28229 17.7393 2.28229 17.8082C2.27847 18.5033 2.80494 18.526 3.29032 18.595C3.37058 18.6063 3.45848 18.561 3.54256 18.5421C3.50435 18.4778 3.4795 18.3957 3.42504 18.3522C3.21101 18.1832 3.24732 18.0708 3.46804 17.9329C3.64002 17.8252 3.78908 17.6741 3.92762 17.5239C4.48944 16.9157 4.65951 16.2347 4.36523 15.4357C4.29548 15.2449 4.39676 14.9927 4.41874 14.7689C4.64232 14.8142 4.89934 14.8057 5.08088 14.9181C5.36466 15.0938 5.62263 15.1627 5.96087 15.1108C6.24942 15.0664 6.55804 15.14 6.85711 15.1684C7.23547 15.2052 7.61671 15.2997 7.88138 14.8831C7.91768 14.8255 8.21197 14.8425 8.3037 14.92C8.64767 15.2109 8.86551 15.2619 8.99546 14.7396C9.06139 14.4751 8.96106 14.1379 8.75468 13.9972C8.5655 13.8678 8.39255 13.6912 8.26452 13.5014C8.14413 13.3229 8.08871 13.1009 8.01036 12.895C7.8938 12.5871 7.86131 12.1781 7.63964 12.0063C7.50396 11.9014 7.08546 12.1885 6.78354 12.249C6.57142 12.2915 6.32395 12.3038 6.12235 12.2386C5.27388 11.9637 4.50091 11.6133 4.08336 10.7151C3.88462 10.2873 3.45084 9.96428 3.12024 9.59782C3.03616 9.50432 2.90144 9.44293 2.84698 9.33715C2.55269 8.77235 2.15044 8.9603 1.7071 9.11803C1.55613 9.17186 1.28573 9.08591 1.16057 8.9688C1.044 8.85924 1.00482 8.62406 1.00769 8.44461C1.01056 8.18204 1.07935 7.92042 1.12235 7.6588C1.1663 7.39718 1.20165 7.13273 1.26185 6.87488C1.36026 6.45459 1.45294 6.03052 1.59148 5.6225C1.78067 5.06148 2.07113 4.59679 2.7801 4.58924C3.07725 4.58546 3.28172 4.4249 3.29987 4.09055C3.33809 3.40769 3.71742 3.03084 4.3958 2.94112C4.72449 2.89767 4.76653 2.72955 4.58977 2.4906C4.43116 2.27715 4.27446 2.04575 4.06616 1.88802C3.75277 1.6519 3.43937 1.60562 3.3037 2.10525C3.29796 2.12508 3.04476 2.11092 3.04285 2.09486C3.00654 1.82379 2.92628 1.53478 2.98743 1.28072C3.0696 0.935981 3.24063 0.604468 3.42122 0.294678C3.49861 0.161506 3.69449 0.0963371 3.83685 0C3.92284 0.124672 4.07954 0.248399 4.08241 0.374959C4.09005 0.72914 4.19802 0.952982 4.55632 1.09371C4.91176 1.23349 5.13821 1.54989 5.60352 1.60751C5.9303 1.64812 6.18732 2.19309 6.48925 2.4991C6.62301 2.63416 6.79118 2.73427 6.9431 2.85328C7.02909 2.92034 7.15139 2.97512 7.1877 3.0639C7.39791 3.57392 7.81449 3.6032 8.2865 3.59659C8.48141 3.59375 8.6792 3.72692 8.8722 3.80437C8.97157 3.84404 9.06903 3.94793 9.15789 3.93943C9.41969 3.91204 9.67671 3.8431 9.93565 3.79021C9.79806 3.6372 9.66142 3.48325 9.52288 3.33024C9.2907 3.07334 9.13974 2.72011 8.66773 2.78244C8.56645 2.79567 8.32758 2.53027 8.3314 2.39709C8.33523 2.22709 8.49288 2.02686 8.64098 1.91069C8.70977 1.85685 8.91807 1.96074 9.05374 2.01458C9.15407 2.05425 9.24006 2.17986 9.33179 2.17892C9.91654 2.1742 10.1802 2.57371 10.4038 3.00345C10.4917 3.17157 10.5003 3.38124 10.5386 3.57297C10.6016 3.88938 10.7019 4.20578 10.7096 4.52407C10.7201 4.92358 11.0335 5.0067 11.2647 5.2107C11.7071 5.60172 12.2164 5.70467 12.7763 5.80195C13.2798 5.88979 13.7499 6.15708 14.2401 6.33275C14.3222 6.36203 14.4627 6.36297 14.5162 6.31386C14.7168 6.1278 14.9232 5.93229 15.0627 5.70278C15.1143 5.61778 15.0312 5.38732 14.9376 5.29193C14.542 4.88675 14.5468 4.79419 15.0035 4.47684C15.0857 4.41923 15.0895 4.2615 15.1583 4.17178C15.2662 4.03105 15.3981 3.90732 15.5194 3.77698C15.5643 3.90354 15.6647 4.0386 15.6446 4.15383C15.6016 4.39278 15.7249 4.42679 15.8921 4.55618C16.2714 4.84897 16.8514 5.04259 16.7281 5.72261C16.7033 5.85768 16.8409 6.02485 16.9144 6.17124C17.0023 6.34503 17.1027 6.51315 17.1963 6.68504C17.2231 6.73415 17.2469 6.83144 17.2699 6.83049C17.9626 6.8031 17.4657 7.13461 17.3712 7.23851C17.0836 7.5568 17.0778 7.91098 17.1151 8.29822C17.224 9.42309 17.353 10.547 17.4027 11.6747C17.4237 12.1498 17.2546 12.6306 17.1896 13.1113C17.1074 13.7167 17.3119 13.8518 17.8948 13.6855C18.1069 13.6251 18.3782 13.7167 18.6066 13.7866C18.7833 13.8404 18.9257 14.0104 19.1025 14.0586C20.1525 14.3467 21.195 14.7009 22.266 14.8539C22.8718 14.9408 23.5349 14.716 24.1588 14.5743C24.5162 14.4931 24.821 14.4307 25.1478 14.664C25.2643 14.7471 25.4707 14.7169 25.637 14.7216C26.0268 14.732 26.4166 14.7396 26.8065 14.733C27.116 14.7273 27.4667 14.7859 27.7275 14.665C28.8502 14.1455 30.0111 14.3505 31.1768 14.3505C31.9842 14.3505 32.7667 14.5318 33.5884 14.5148C34.4101 14.4978 35.1248 14.494 35.7984 14.0189C35.8414 13.9887 35.9207 14.0048 35.9819 14.0076C36.5991 14.0312 37.2173 14.0766 37.8346 14.0775C38.7489 14.0775 39.5735 14.1842 40.1592 15.0399C40.3331 15.294 40.8195 15.3563 41.1768 15.464C41.5189 15.5669 42.3597 16.4038 42.4027 16.74C42.4657 17.2311 42.1428 17.6155 41.6507 17.5267C41.2953 17.4625 40.9504 17.268 40.636 17.0753C40.4277 16.9468 40.2481 16.8788 40.1191 17.0885C40.0627 17.1792 40.1315 17.4021 40.2146 17.5107C40.7717 18.2304 40.787 18.2361 40.314 19.0417C40.12 19.3713 40.1086 19.6773 40.2433 20.0277C40.3312 20.2554 40.4086 20.5179 40.3799 20.7522C40.3465 21.0213 40.2481 21.2933 39.8153 21.1706C39.3748 21.0468 39.219 21.2253 39.3987 21.6343C39.5926 22.0773 39.349 22.269 39.0117 22.371C38.7308 22.456 38.4174 22.4541 38.1183 22.4626C37.8307 22.4711 37.7314 22.5297 37.9091 22.8158C38.1995 23.2834 38.1871 23.3032 37.6454 23.3079C37.3893 23.3098 37.3243 23.3514 37.3855 23.6281C37.4543 23.9398 37.482 24.2864 37.418 24.5952C37.3358 24.99 36.9469 25.058 36.6373 24.7955C36.4329 24.6226 36.2074 24.4744 35.9838 24.3251C35.9265 24.2864 35.8414 24.2883 35.7688 24.2722C35.7669 24.3468 35.764 24.4215 35.764 24.497C35.764 24.5121 35.7774 24.5263 35.7784 24.5414C35.7994 24.7936 35.8185 25.0448 35.8386 25.297C35.6026 25.2101 35.3685 25.1175 35.1296 25.042C35.079 25.0259 34.9662 25.0552 34.9519 25.0902C34.6356 25.8986 33.9133 25.9789 33.1919 26.0564C32.9005 26.0875 32.5603 25.978 32.5307 26.4738C32.5221 26.6145 32.2622 26.8176 32.0864 26.8563C31.3536 27.0197 31.1443 27.5826 30.9685 28.1824C30.9198 28.3477 30.8873 28.5186 30.8644 28.6896C30.8109 29.0872 30.7812 29.4943 30.1869 29.3696C30.1344 29.3583 30.0149 29.4291 30.0111 29.4697C30.0054 29.533 30.0541 29.6303 30.1105 29.6652C30.2424 29.7474 30.3924 29.7993 30.5338 29.8673C30.637 29.9174 30.7354 29.975 30.8367 30.0298C30.7277 30.0846 30.6207 30.1422 30.5089 30.1922C30.3417 30.2678 30.1726 30.3386 30.0044 30.4114C30.1258 30.5861 30.208 30.8373 30.3752 30.9204C30.9169 31.1877 31.0631 31.6222 31.1233 32.1728C31.1825 32.7159 31.3698 33.2429 31.4587 33.7841C31.5265 34.1968 31.5542 34.62 31.5523 35.0384C31.5494 35.4492 31.8036 35.777 32.2145 35.777C32.2651 35.777 32.3549 35.6551 32.3606 35.5843C32.3788 35.334 32.3673 35.0818 32.3673 34.8306H32.3931L32.3884 34.8325Z" fill="#3abfef" fill-opacity=""/>
</g>
<defs>
<clipPath id="clip0_28_73">
<rect width="45" height="55" fill="#3abfef"/>
</clipPath>
</defs>
</svg>
