<svg width="58" height="46" viewBox="0 0 58 46" fill="none" xmlns="http://www.w3.org/2000/svg">
<g clip-path="url(#clip0_28_83)">
<path fill-rule="evenodd" clip-rule="evenodd" d="M6.77799 7.72172V37.8722H28.8301C28.8537 37.7963 28.882 37.7205 28.9103 37.6447L28.9528 37.5256L30.5104 33.1936H15.2222C15.2222 30.3779 13.4521 28.3906 11.3187 28.4122V16.4994C12.3353 16.471 13.3014 15.9847 14.008 15.1457C14.7146 14.3067 15.1049 13.1824 15.0947 12.0158H43.8398C43.8398 14.837 45.6146 16.8188 47.7575 16.8026V20.4685C48.0077 20.2682 48.2295 20.057 48.4844 19.8458C50.1752 18.3782 51.4935 16.419 52.3029 14.1709L52.2651 7.7163L6.77799 7.72172ZM33.1253 39.4696L39.0065 23.1597L41.2816 28.8454C48.4749 27.221 55.1538 21.8656 56.9474 14.5716C60.7235 26.0784 53.7095 36.0744 45.8128 40.1952L48.1445 46.0271L33.1253 39.4696ZM34.7726 19.4938C34.2238 18.3001 33.3807 17.3182 32.3485 16.6706C31.3164 16.0231 30.1409 15.7385 28.9686 15.8525C27.7964 15.9666 26.6794 16.4741 25.757 17.3117C24.8346 18.1494 24.1477 19.2801 23.7818 20.5628C23.416 21.8455 23.3876 23.2234 23.7 24.5245C24.0124 25.8257 24.6519 26.9925 25.5387 27.8793C26.4255 28.7662 27.5203 29.3338 28.6865 29.5114C29.8527 29.689 31.0386 29.4687 32.0964 28.8779L34.7962 21.3945C34.9031 21.0975 35.0343 20.8128 35.188 20.5443C35.0864 20.1704 34.9553 19.8079 34.7962 19.4613L34.7726 19.4938ZM0 0V28.0873H3.12939V7.62966C3.12173 7.16865 3.19802 6.71088 3.35337 6.28562C3.50871 5.86035 3.73971 5.47696 4.03158 5.15996C4.32345 4.84296 4.66978 4.59932 5.04841 4.44462C5.42704 4.28993 5.82964 4.22758 6.23047 4.26157H43.0988L43.0705 0H0Z" fill="black" fill-opacity="0.15"/>
</g>
<defs>
<clipPath id="clip0_28_83">
<rect width="58" height="46" fill="white"/>
</clipPath>
</defs>
</svg>
