<svg width="57" height="57" viewBox="0 0 57 57" fill="#3abfef" xmlns="http://www.w3.org/2000/svg">
<path d="M16.8774 2.53828C16.6102 2.71641 13.7825 4.94297 10.5985 7.43672C6.63521 10.5316 4.74263 12.068 4.6981 12.2238C4.67583 12.3574 4.67583 12.5355 4.72036 12.6246C4.76489 12.7137 7.59263 14.9625 10.9993 17.6121C17.3227 22.5551 17.5231 22.6887 17.8793 22.3324C17.9684 22.2434 18.0129 21.4418 18.0129 19.3934V16.5656L21.4864 16.6324C25.4051 16.6992 27.3868 16.8773 29.9251 17.3895C32.4633 17.9016 36.0926 19.0148 38.2747 19.9277C45.2215 22.8891 49.2294 29.3461 47.7821 35.202C47.5149 36.2707 46.6465 38.1188 45.9563 39.0094C45.6668 39.3879 44.9989 40.1449 44.4645 40.657C43.5739 41.5254 43.4848 41.659 43.4848 41.993C43.4848 42.4828 43.6184 42.7277 44.0192 42.9281C44.4868 43.173 45.0211 43.0617 45.6669 42.5941C48.2274 40.7238 50.1645 38.0074 51.2778 34.5785C53.3708 28.2996 52.1461 21.3305 48.1829 16.8996C45.3551 13.7156 40.0782 10.7543 34.9571 9.46289C31.3501 8.55 28.4778 8.26055 22.0875 8.14922L17.9907 8.08242V5.34375C17.9907 2.76094 17.9907 2.53828 17.8126 2.38242C17.5676 2.1375 17.3895 2.15977 16.8774 2.53828Z" fill="#3abfef" fill-opacity=""/>
<path d="M16.4321 28.1883C9.08446 30.7934 9.12899 30.7711 9.57431 31.2609C9.68564 31.3945 12.3352 32.3742 16.6102 33.8883L23.4903 36.3152L30.3927 33.8883C34.2001 32.5523 37.3618 31.4168 37.4286 31.35C37.4954 31.3055 37.5622 31.1496 37.5622 31.016C37.5622 30.8824 37.4954 30.7488 37.4286 30.682C37.2727 30.5484 24.0024 25.8504 23.6017 25.7836C23.4013 25.7613 21.2415 26.4738 16.4321 28.1883Z" fill="#3abfef" fill-opacity=""/>
<path d="M7.41445 33.532C7.25859 33.7102 7.23633 34.4004 7.23633 41.3473C7.23633 49.541 7.23633 49.452 7.7707 49.7859C7.9043 49.875 11.1328 51.0551 14.9402 52.391C20.1949 54.2391 21.9094 54.818 22.0207 54.7289C22.1543 54.6398 22.1766 53.8383 22.1766 46.5352V38.4305L14.9848 35.8922C11.0215 34.4895 7.74844 33.3539 7.68164 33.3539C7.61484 33.3539 7.50352 33.4207 7.41445 33.532Z" fill="#3abfef" fill-opacity=""/>
<path d="M31.9512 35.9145L24.7594 38.4527L24.7372 46.357C24.7372 50.6988 24.7372 54.3727 24.7594 54.484C24.7817 54.6176 24.893 54.7289 25.0044 54.7734C25.3161 54.8625 39.0762 49.9641 39.4102 49.6301L39.6774 49.3629L39.6997 41.5031C39.7219 34.4449 39.6997 33.6211 39.5661 33.4875C39.477 33.3984 39.3434 33.3316 39.2989 33.3316C39.1876 33.3539 35.9145 34.5117 31.9512 35.9145Z" fill="#3abfef" fill-opacity=""/>
</svg>
