<svg width="27" height="27" viewBox="0 0 27 27" fill="none" xmlns="http://www.w3.org/2000/svg">
<path d="M16.6163 6.60375C16.8746 6.75042 17.1804 6.78897 17.4671 6.71099C17.7537 6.633 17.9979 6.44482 18.1463 6.1875C18.2691 5.97078 18.4604 5.80094 18.6901 5.70463C18.9198 5.60831 19.175 5.59097 19.4157 5.65531C19.6563 5.71966 19.8688 5.86205 20.0198 6.06016C20.1708 6.25828 20.2518 6.50091 20.25 6.75C20.25 7.04837 20.1315 7.33452 19.9205 7.54549C19.7096 7.75647 19.4234 7.875 19.125 7.875C18.8267 7.875 18.5405 7.99353 18.3295 8.2045C18.1186 8.41548 18 8.70163 18 9C18 9.29837 18.1186 9.58452 18.3295 9.79549C18.5405 10.0065 18.8267 10.125 19.125 10.125C19.7174 10.1246 20.2992 9.96835 20.812 9.67189C21.3248 9.37543 21.7506 8.94922 22.0465 8.43609C22.3424 7.92297 22.4981 7.34099 22.4979 6.74865C22.4976 6.1563 22.3415 5.57445 22.0452 5.06156C21.7488 4.54867 21.3227 4.12281 20.8097 3.82676C20.2966 3.53071 19.7147 3.37491 19.1223 3.375C18.53 3.37509 17.9481 3.53109 17.4351 3.8273C16.9222 4.12351 16.4962 4.54951 16.2 5.0625C16.1257 5.1909 16.0774 5.33275 16.0581 5.47987C16.0387 5.627 16.0487 5.7765 16.0874 5.91975C16.1261 6.06301 16.1927 6.1972 16.2835 6.31459C16.3743 6.43198 16.4874 6.53025 16.6163 6.60375ZM21.4538 14.625C21.1585 14.5867 20.86 14.667 20.6238 14.8483C20.3876 15.0297 20.233 15.2973 20.1938 15.5925C19.9577 17.4996 19.0325 19.2545 17.5924 20.5267C16.1523 21.799 14.2966 22.5008 12.375 22.5H6.08628L6.81753 21.7688C7.02707 21.558 7.14468 21.2728 7.14468 20.9756C7.14468 20.6784 7.02707 20.3933 6.81753 20.1825C5.7206 19.0813 4.97409 17.68 4.67204 16.1553C4.36999 14.6306 4.5259 13.0506 5.12013 11.6143C5.71437 10.178 6.72036 8.94973 8.01137 8.08413C9.30239 7.21852 10.8207 6.75432 12.375 6.75C12.6734 6.75 12.9596 6.63147 13.1705 6.42049C13.3815 6.20952 13.5 5.92337 13.5 5.625C13.5 5.32663 13.3815 5.04048 13.1705 4.8295C12.9596 4.61853 12.6734 4.5 12.375 4.5C10.4729 4.50793 8.61151 5.05152 7.00406 6.06847C5.3966 7.08542 4.10812 8.53461 3.28623 10.25C2.46434 11.9654 2.14229 13.8776 2.35696 15.7676C2.57164 17.6576 3.31436 19.4489 4.50003 20.9362L2.57628 22.8263C2.42018 22.9845 2.31444 23.1853 2.27239 23.4036C2.23034 23.6218 2.25388 23.8476 2.34003 24.0525C2.42443 24.2579 2.56776 24.4338 2.75194 24.5579C2.93613 24.6821 3.15293 24.7489 3.37503 24.75H12.375C14.8404 24.7503 17.2212 23.8511 19.0708 22.2211C20.9204 20.591 22.1117 18.3421 22.4213 15.8962C22.4419 15.7492 22.4331 15.5995 22.3955 15.4558C22.358 15.3121 22.2923 15.1773 22.2024 15.0591C22.1124 14.9409 22 14.8417 21.8715 14.7672C21.743 14.6927 21.601 14.6444 21.4538 14.625ZM19.5525 11.3287C19.3477 11.2381 19.1205 11.2107 18.9 11.25L18.6975 11.3175L18.495 11.4187L18.3263 11.565C18.2251 11.6687 18.1449 11.7909 18.09 11.925C18.0235 12.0653 17.9926 12.2199 18 12.375C17.9968 12.525 18.0235 12.6742 18.0788 12.8137C18.137 12.9488 18.2211 13.0711 18.3263 13.1737C18.4314 13.278 18.5561 13.3605 18.6931 13.4165C18.8302 13.4725 18.977 13.5009 19.125 13.5C19.4234 13.5 19.7096 13.3815 19.9205 13.1705C20.1315 12.9595 20.25 12.6734 20.25 12.375C20.2538 12.2274 20.223 12.081 20.16 11.9475C20.0392 11.6772 19.8229 11.4609 19.5525 11.34V11.3287Z" fill="#3ABFEF"/>
</svg>
